<svg width="19" height="18" viewBox="0 0 19 18" fill="none" xmlns="http://www.w3.org/2000/svg">
<path d="M4.35608 7.79C5.79608 10.62 8.11608 12.93 10.9461 14.38L13.1461 12.18C13.4161 11.91 13.8161 11.82 14.1661 11.94C15.2861 12.31 16.4961 12.51 17.7361 12.51C18.2861 12.51 18.7361 12.96 18.7361 13.51V17C18.7361 17.55 18.2861 18 17.7361 18C8.34608 18 0.736084 10.39 0.736084 1C0.736084 0.45 1.18608 0 1.73608 0H5.23608C5.78608 0 6.23608 0.45 6.23608 1C6.23608 2.25 6.43608 3.45 6.80608 4.57C6.91608 4.92 6.83608 5.31 6.55608 5.59L4.35608 7.79Z" fill="white"/>
</svg>
